<?xml version="1.0" encoding="utf-8"?>
<!-- Generator: Adobe Illustrator 21.1.0, SVG Export Plug-In . SVG Version: 6.00 Build 0)  -->
<svg version="1.1" id="Layer_1" xmlns="http://www.w3.org/2000/svg" xmlns:xlink="http://www.w3.org/1999/xlink" x="0px" y="0px"
	 viewBox="0 0 36 36" style="enable-background:new 0 0 36 36;" xml:space="preserve">
<style type="text/css">
	.st0{fill:#17a2b8;}
	.st1{fill:#FFFFFF;}
</style>
<g transform="translate(0 1080)">
	<path class="st0" d="M18.6-1046.2c-0.2,0-0.5-0.1-0.6-0.3c-0.1-0.1-2.2-2.9-4.4-6.9c-1.3-2.4-2.3-4.8-3-7c-0.9-2.8-1.4-5.5-1.4-7.9
		c0-5.2,4.3-9.5,9.5-9.5s9.5,4.3,9.5,9.5c0,2.4-0.5,5.1-1.4,7.9c-0.7,2.2-1.8,4.6-3,7c-2.2,4.1-4.3,6.8-4.4,6.9
		C19.1-1046.3,18.9-1046.2,18.6-1046.2L18.6-1046.2z"/>
	<path class="st1" d="M18.7-1060.7c-3.6,0-6.6-3-6.6-6.6s3-6.6,6.6-6.6c3.6,0,6.6,3,6.6,6.6S22.4-1060.7,18.7-1060.7z M18.7-1071.7
		c-2.4,0-4.4,2-4.4,4.4s2,4.4,4.4,4.4c2.4,0,4.4-2,4.4-4.4S21.2-1071.7,18.7-1071.7z"/>
</g>
</svg>
