<?xml version="1.0" encoding="iso-8859-1"?>
<!-- Generator: Adobe Illustrator 19.0.0, SVG Export Plug-In . SVG Version: 6.00 Build 0)  -->
<svg version="1.1" id="Layer_1" xmlns="http://www.w3.org/2000/svg" xmlns:xlink="http://www.w3.org/1999/xlink" x="0px" y="0px"
	 viewBox="0 0 512 512" style="enable-background:new 0 0 512 512;" xml:space="preserve">
<path style="fill:#8FCC05;" d="M340.234,393.831c46.822,27.033,47.054,70.856,0.536,97.889
	c-46.518,27.033-122.175,27.042-168.997,0.009c-46.822-27.033-47.068-70.865-0.551-97.898S293.412,366.799,340.234,393.831z"/>
<g>
	<path style="fill:#1D1D1F;" d="M369.997,237.887c0.075-26.692-16.51-58.512-38.512-76.298l0,0l-1.372-0.792
		c-2.453-1.863-4.966-3.559-7.535-5.043l0,0l-87.856-50.724c-2.563-1.48-5.078-2.686-7.534-3.657l-1.373-0.51
		c-9.655-3.47-18.288-3.001-24.947,0.869l-48.268,28.05c0.006-0.003,0.013-0.006,0.019-0.01
		c-8.546,4.956-13.846,15.505-13.889,30.51l-0.288,101.651l35.582,20.544l3.093-1.797l-0.084,29.397l-0.344,121.429l35.582,20.543
		l34.619-20.118l-0.114,40.039l35.582,20.544l48.269-28.05l0.29-102.381l38.792-22.544L369.997,237.887z"/>
	<polygon style="fill:#1D1D1F;" points="212.615,330.62 260.883,302.569 260.539,423.998 212.27,452.048 	"/>
	<polygon style="fill:#1D1D1F;" points="282.703,371.085 330.971,343.034 330.627,464.462 282.358,492.513 	"/>
	<polygon style="fill:#1D1D1F;" points="174.337,171.758 222.605,143.707 222.292,254.427 174.024,282.478 	"/>
</g>
<path style="fill:#57565C;" d="M152.599,129.784l48.268-28.05c6.659-3.87,15.292-4.339,24.947-0.869l-48.268,28.05
	C167.891,125.443,159.258,125.913,152.599,129.784z"/>
<g>
	<polygon style="fill:#1D1D1F;" points="283.089,234.545 331.358,206.495 330.971,343.034 282.703,371.085 	"/>
	<polygon style="fill:#1D1D1F;" points="321.729,265.938 369.997,237.887 369.708,339.537 321.44,367.589 	"/>
</g>
<path style="fill:#3E3D43;" d="M234.722,105.031c-2.563-1.48-5.078-2.686-7.534-3.657l-1.373-0.51l-48.268,28.05l1.373,0.51
	c2.456,0.971,4.971,2.178,7.534,3.657l87.856,50.724l48.269-28.05L234.722,105.031z"/>
<path style="fill:#57565C;" d="M330.113,160.797c-2.453-1.863-4.966-3.559-7.535-5.043l-48.269,28.05
	c2.568,1.484,5.082,3.18,7.536,5.043l1.372,0.792l48.269-28.05L330.113,160.797z"/>
<path style="fill:#2E2E30;" d="M274.309,183.805c2.568,1.483,5.082,3.18,7.536,5.043l1.372,0.792
	c22.001,17.785,38.587,49.605,38.512,76.298l-0.288,101.651l-35.582-20.544l0.313-110.719l-3.082-1.779l-0.387,136.539
	l-0.345,121.429l-35.582-20.544l0.344-121.429l-34.506-19.922l-0.344,121.429l-35.582-20.543l0.344-121.429l0.387-136.539
	l-3.082-1.779l-0.313,110.719l-35.582-20.544l0.288-101.651c0.075-26.692,16.787-39.288,38.817-31.369l1.373,0.51
	c2.456,0.971,4.971,2.178,7.534,3.657L274.309,183.805z"/>
<path style="fill:#1D1D1F;" d="M283.217,189.64l48.269-28.05c22.001,17.785,38.587,49.605,38.512,76.298l-48.268,28.05
	C321.804,239.245,305.218,207.425,283.217,189.64z"/>
<circle style="fill:#2E2E30;" cx="256" cy="75.88" r="75.88"/>
<circle style="fill:#3E3D43;" cx="226.367" cy="47.25" r="28.628"/>
<g>
</g>
<g>
</g>
<g>
</g>
<g>
</g>
<g>
</g>
<g>
</g>
<g>
</g>
<g>
</g>
<g>
</g>
<g>
</g>
<g>
</g>
<g>
</g>
<g>
</g>
<g>
</g>
<g>
</g>
</svg>
